<svg width="80" height="80" viewBox="0 0 80 80" fill="none" xmlns="http://www.w3.org/2000/svg">
<path d="M48.4984 18.9489C48.4984 18.7687 48.4984 18.5721 48.4984 18.3919C48.5337 16.6391 47.9541 14.9292 46.8602 13.5592C44.8124 10.9872 41.5196 11.921 39.9142 15.1974C37.3914 20.4396 34.672 25.5017 32.0509 30.662C29.7738 35.1506 27.4639 39.6065 25.236 44.1607C24.7509 45.2571 24.4785 46.4357 24.4332 47.6337C24.2367 51.5818 26.3663 54.7599 29.0693 54.8254C29.3035 53.8396 29.6613 52.8874 30.1342 51.9913L46.2868 21.783C46.8622 20.7225 47.6095 19.7648 48.4984 18.9489V18.9489Z" fill="#00969C"/>
<path d="M52.9869 41.8017C51.8753 41.4513 50.7113 41.2961 49.5467 41.343C48.5146 41.343 48.5146 41.343 48.5146 39.7048V35.5765L38.1776 54.8417C39.2588 54.8417 39.2424 54.9892 39.2916 56.8403C39.2619 59.0847 39.3824 61.3286 39.652 63.5569C40.2745 67.3084 43.2233 69.3398 45.828 67.5869C47.6628 66.3746 48.5146 64.1467 48.5146 61.2143C48.5146 59.5761 48.5146 57.9379 48.5146 56.2178C48.5146 55.2021 48.6621 54.7271 49.4156 54.8581C49.9071 54.8581 50.4477 54.8581 50.9556 54.8581C51.5326 54.8839 52.1078 54.7761 52.6363 54.5431C53.1648 54.3101 53.6324 53.9582 54.0026 53.5148C54.7179 52.7396 55.2625 51.8228 55.6011 50.8239C55.9397 49.8249 56.0649 48.766 55.9684 47.7156C55.8538 44.8979 54.8708 42.6535 52.9869 41.8017Z" fill="#00969C"/>
</svg>
